<svg width="211" height="195" viewBox="0 0 211 195" fill="none" xmlns="http://www.w3.org/2000/svg">
<path d="M5.568 178.968H13.656V181.992H5.568V178.968ZM5.856 185.88H15V189H1.992V172.2H14.688V175.32H5.856V185.88ZM16.0569 189L21.8409 181.416L21.7689 183.48L16.2249 176.088H20.4249L23.9289 180.912L22.3449 180.96L25.9689 176.088H29.9529L24.3849 183.408V181.392L30.1449 189H25.8969L22.2249 183.864L23.7849 184.08L20.1369 189H16.0569ZM39.5944 189.192C38.5064 189.192 37.5544 188.952 36.7384 188.472C35.9224 187.992 35.2824 187.264 34.8184 186.288C34.3704 185.296 34.1464 184.048 34.1464 182.544C34.1464 181.024 34.3624 179.776 34.7944 178.8C35.2264 177.824 35.8504 177.096 36.6664 176.616C37.4824 176.136 38.4584 175.896 39.5944 175.896C40.8104 175.896 41.8984 176.176 42.8584 176.736C43.8344 177.28 44.6024 178.048 45.1624 179.04C45.7384 180.032 46.0264 181.2 46.0264 182.544C46.0264 183.904 45.7384 185.08 45.1624 186.072C44.6024 187.064 43.8344 187.832 42.8584 188.376C41.8984 188.92 40.8104 189.192 39.5944 189.192ZM31.9624 193.656V176.088H35.5384V178.728L35.4664 182.568L35.7064 186.384V193.656H31.9624ZM38.9464 186.12C39.5704 186.12 40.1224 185.976 40.6024 185.688C41.0984 185.4 41.4904 184.992 41.7784 184.464C42.0824 183.92 42.2344 183.28 42.2344 182.544C42.2344 181.792 42.0824 181.152 41.7784 180.624C41.4904 180.096 41.0984 179.688 40.6024 179.4C40.1224 179.112 39.5704 178.968 38.9464 178.968C38.3224 178.968 37.7624 179.112 37.2664 179.4C36.7704 179.688 36.3784 180.096 36.0904 180.624C35.8024 181.152 35.6584 181.792 35.6584 182.544C35.6584 183.28 35.8024 183.92 36.0904 184.464C36.3784 184.992 36.7704 185.4 37.2664 185.688C37.7624 185.976 38.3224 186.12 38.9464 186.12ZM48.5327 189V171.192H52.2767V189H48.5327ZM61.8954 189.192C60.5194 189.192 59.2954 188.904 58.2234 188.328C57.1674 187.752 56.3274 186.968 55.7034 185.976C55.0954 184.968 54.7914 183.824 54.7914 182.544C54.7914 181.248 55.0954 180.104 55.7034 179.112C56.3274 178.104 57.1674 177.32 58.2234 176.76C59.2954 176.184 60.5194 175.896 61.8954 175.896C63.2554 175.896 64.4714 176.184 65.5434 176.76C66.6154 177.32 67.4554 178.096 68.0634 179.088C68.6714 180.08 68.9754 181.232 68.9754 182.544C68.9754 183.824 68.6714 184.968 68.0634 185.976C67.4554 186.968 66.6154 187.752 65.5434 188.328C64.4714 188.904 63.2554 189.192 61.8954 189.192ZM61.8954 186.12C62.5194 186.12 63.0794 185.976 63.5754 185.688C64.0714 185.4 64.4634 184.992 64.7514 184.464C65.0394 183.92 65.1834 183.28 65.1834 182.544C65.1834 181.792 65.0394 181.152 64.7514 180.624C64.4634 180.096 64.0714 179.688 63.5754 179.4C63.0794 179.112 62.5194 178.968 61.8954 178.968C61.2714 178.968 60.7114 179.112 60.2154 179.4C59.7194 179.688 59.3194 180.096 59.0154 180.624C58.7274 181.152 58.5834 181.792 58.5834 182.544C58.5834 183.28 58.7274 183.92 59.0154 184.464C59.3194 184.992 59.7194 185.4 60.2154 185.688C60.7114 185.976 61.2714 186.12 61.8954 186.12ZM71.478 189V176.088H75.054V179.736L74.55 178.68C74.934 177.768 75.55 177.08 76.398 176.616C77.246 176.136 78.278 175.896 79.494 175.896V179.352C79.334 179.336 79.19 179.328 79.062 179.328C78.934 179.312 78.798 179.304 78.654 179.304C77.63 179.304 76.798 179.6 76.158 180.192C75.534 180.768 75.222 181.672 75.222 182.904V189H71.478ZM88.7964 189V186.48L88.5564 185.928V181.416C88.5564 180.616 88.3084 179.992 87.8124 179.544C87.3324 179.096 86.5884 178.872 85.5804 178.872C84.8924 178.872 84.2124 178.984 83.5404 179.208C82.8844 179.416 82.3244 179.704 81.8604 180.072L80.5164 177.456C81.2204 176.96 82.0684 176.576 83.0604 176.304C84.0524 176.032 85.0604 175.896 86.0844 175.896C88.0524 175.896 89.5804 176.36 90.6684 177.288C91.7564 178.216 92.3004 179.664 92.3004 181.632V189H88.7964ZM84.8604 189.192C83.8524 189.192 82.9884 189.024 82.2684 188.688C81.5484 188.336 80.9964 187.864 80.6124 187.272C80.2284 186.68 80.0364 186.016 80.0364 185.28C80.0364 184.512 80.2204 183.84 80.5884 183.264C80.9724 182.688 81.5724 182.24 82.3884 181.92C83.2044 181.584 84.2684 181.416 85.5804 181.416H89.0124V183.6H85.9884C85.1084 183.6 84.5004 183.744 84.1644 184.032C83.8444 184.32 83.6844 184.68 83.6844 185.112C83.6844 185.592 83.8684 185.976 84.2364 186.264C84.6204 186.536 85.1404 186.672 85.7964 186.672C86.4204 186.672 86.9804 186.528 87.4764 186.24C87.9724 185.936 88.3324 185.496 88.5564 184.92L89.1324 186.648C88.8604 187.48 88.3644 188.112 87.6444 188.544C86.9244 188.976 85.9964 189.192 84.8604 189.192Z" fill="white"/>
<g clip-path="url(#clip0_107_79)">
<path d="M82.1476 35.4066C82.0646 35.4065 81.9847 35.3749 81.924 35.3183C81.8633 35.2617 81.8263 35.1841 81.8205 35.1013C81.6059 32.185 80.298 29.4572 78.1584 27.4639C76.0188 25.4706 73.2054 24.3588 70.2812 24.3509C69.9312 24.3509 69.5636 24.3687 69.1884 24.4038C69.1257 24.4097 69.0626 24.3974 69.0066 24.3684C68.9507 24.3393 68.9043 24.2948 68.873 24.2401C67.5297 21.889 65.5238 19.9855 63.1056 18.7672C60.6873 17.5489 57.9638 17.0697 55.275 17.3895C52.5861 17.7093 50.051 18.8139 47.986 20.5654C45.9209 22.3169 44.4174 24.6378 43.6631 27.2384C43.6432 27.3081 43.6007 27.3692 43.5423 27.4121C43.4838 27.455 43.4128 27.4772 43.3403 27.4753L43.253 27.4726C43.2076 27.4711 43.1623 27.4695 43.1165 27.4695C40.8985 27.4765 38.7496 28.2416 37.0262 29.6379C35.3029 31.0342 34.1088 32.9777 33.642 35.146C33.6265 35.2197 33.5861 35.2858 33.5276 35.3333C33.4691 35.3807 33.3961 35.4066 33.3208 35.4066H11.3283C11.2413 35.4064 11.1581 35.3717 11.0967 35.3101C11.0353 35.2486 11.0009 35.1652 11.0009 35.0783C11.0009 34.9914 11.0353 34.908 11.0967 34.8465C11.1581 34.785 11.2413 34.7503 11.3283 34.75H33.0581C33.6051 32.4947 34.8918 30.4875 36.7129 29.0489C38.534 27.6103 40.7844 26.8231 43.1052 26.813C43.9314 24.1405 45.5159 21.7655 47.6662 19.9765C49.8166 18.1874 52.4402 17.0613 55.2183 16.7351C57.9965 16.4088 60.8096 16.8963 63.316 18.1385C65.8223 19.3806 67.914 21.3239 69.3369 23.7322C69.6598 23.707 69.9766 23.6944 70.2812 23.6944C73.3714 23.7027 76.3445 24.8777 78.6055 26.9843C80.8665 29.0908 82.2487 31.9734 82.4754 35.0553C82.4785 35.0983 82.473 35.1415 82.4593 35.1824C82.4457 35.2233 82.4241 35.2611 82.3958 35.2936C82.3675 35.3262 82.3331 35.3528 82.2945 35.3721C82.2559 35.3913 82.2139 35.4028 82.1709 35.4058C82.1631 35.4063 82.1554 35.4066 82.1476 35.4066Z" fill="#CBCBCB"/>
<path d="M78.2418 39.6155H24.4049C24.3179 39.6155 24.2344 39.5809 24.1728 39.5194C24.1112 39.4578 24.0767 39.3743 24.0767 39.2873C24.0767 39.2002 24.1112 39.1167 24.1728 39.0551C24.2344 38.9936 24.3179 38.959 24.4049 38.959H78.2418C78.3289 38.959 78.4124 38.9936 78.4739 39.0551C78.5355 39.1167 78.5701 39.2002 78.5701 39.2873C78.5701 39.3743 78.5355 39.4578 78.4739 39.5194C78.4124 39.5809 78.3289 39.6155 78.2418 39.6155Z" fill="#CBCBCB"/>
<path d="M37.5359 44.3755H19.4809C19.4377 44.3757 19.3949 44.3673 19.355 44.3508C19.3151 44.3344 19.2788 44.3102 19.2482 44.2797C19.2176 44.2492 19.1934 44.213 19.1768 44.1731C19.1603 44.1332 19.1517 44.0905 19.1517 44.0473C19.1517 44.0041 19.1603 43.9613 19.1768 43.9214C19.1934 43.8816 19.2176 43.8453 19.2482 43.8148C19.2788 43.7843 19.3151 43.7602 19.355 43.7437C19.3949 43.7273 19.4377 43.7189 19.4809 43.719H37.5359C37.6228 43.7192 37.7061 43.7539 37.7675 43.8155C37.8289 43.877 37.8633 43.9604 37.8633 44.0473C37.8633 44.1342 37.8289 44.2176 37.7675 44.2791C37.7061 44.3406 37.6228 44.3753 37.5359 44.3755Z" fill="#CBCBCB"/>
<path d="M54.4165 108.249C54.4165 121.595 40.4247 127.981 40.4247 127.981C40.4247 127.981 26.2895 121.595 26.0025 108.249C25.8338 100.404 32.3632 94.0417 40.2095 94.0417C42.0752 94.0417 43.9226 94.4092 45.6463 95.1232C47.3699 95.8372 48.9361 96.8836 50.2554 98.2029C51.5746 99.5221 52.6211 101.088 53.3351 102.812C54.049 104.536 54.4165 106.383 54.4165 108.249Z" fill="#E5E5E5"/>
<path d="M45.1604 128.77H35.689L34.5409 124.178H46.3084L45.1604 128.77Z" fill="#CBCBCB"/>
<path d="M44.8375 136.624H36.012V141.223H44.8375V136.624Z" fill="white"/>
<path d="M44.9093 141.295H35.9402V136.552H44.9093V141.295ZM36.0837 141.151H44.7658V136.695H36.0837V141.151Z" fill="#CBCBCB"/>
<path d="M42.2338 129.312H38.6157L38.2004 128.659H42.6491L42.2338 129.312Z" fill="#CBCBCB"/>
<path d="M35.9044 128.77H35.7609V135.802H35.9044V128.77Z" fill="#CBCBCB"/>
<path d="M45.0887 128.77H44.9452V135.802H45.0887V128.77Z" fill="#CBCBCB"/>
<path d="M41.8631 124.1L41.7755 123.986C45.9213 120.789 50.8632 115.312 50.8632 107.375C50.8665 104.596 50.049 101.877 48.5131 99.5596C46.9773 97.2426 44.7915 95.4306 42.23 94.3509L42.2859 94.2188C44.8734 95.3094 47.0814 97.1398 48.6328 99.4803C50.1842 101.821 51.01 104.567 51.0067 107.375C51.0067 115.371 46.0344 120.883 41.8631 124.1Z" fill="#CBCBCB"/>
<path d="M37.271 124.1L37.1833 123.986C41.3291 120.789 46.2711 115.312 46.2711 107.375C46.2722 104.614 45.4645 101.913 43.9477 99.6061C42.4309 97.2989 40.2715 95.4866 37.7362 94.393L37.7931 94.2612C40.3541 95.366 42.5354 97.1967 44.0676 99.5273C45.5998 101.858 46.4157 104.586 46.4146 107.375C46.4146 115.371 41.4422 120.883 37.271 124.1Z" fill="#CBCBCB"/>
<path d="M43.1479 124.1C38.9767 120.883 34.0044 115.371 34.0044 107.375C34.0033 104.586 34.8192 101.858 36.3514 99.5273C37.8836 97.1967 40.065 95.3659 42.626 94.2612L42.6829 94.393C40.1476 95.4866 37.9881 97.2989 36.4713 99.6061C34.9545 101.913 34.1468 104.614 34.1479 107.375C34.1479 115.312 39.0898 120.789 43.2356 123.986L43.1479 124.1Z" fill="#CBCBCB"/>
<path d="M38.5558 124.1C34.3846 120.883 29.4123 115.371 29.4123 107.375C29.4076 104.556 30.2392 101.799 31.8019 99.4529C33.3646 97.1066 35.5882 95.2766 38.1913 94.1943L38.2466 94.3268C35.6697 95.3981 33.4684 97.2098 31.9214 99.5325C30.3744 101.855 29.5511 104.585 29.5557 107.375C29.5557 115.312 34.4977 120.789 38.6434 123.986L38.5558 124.1Z" fill="#CBCBCB"/>
<path d="M40.2812 94.0417H40.1377V124.178H40.2812V94.0417Z" fill="#CBCBCB"/>
<path d="M38.5927 135.581L35.9612 138.212L36.0626 138.314L38.6941 135.682L38.5927 135.581Z" fill="#CBCBCB"/>
<path d="M39.8719 135.537L35.9602 139.651L36.0642 139.75L39.9759 135.636L39.8719 135.537Z" fill="#CBCBCB"/>
<path d="M45.6627 135.586H34.8998V136.878H45.6627V135.586Z" fill="white"/>
<path d="M45.7344 136.95H34.828V135.515H45.7344V136.95ZM34.9715 136.806H45.5909V135.658H34.9715V136.806Z" fill="#CBCBCB"/>
<path d="M81.4945 74.4261C81.4945 83.235 72.2594 87.45 72.2594 87.45C72.2594 87.45 62.9295 83.235 62.74 74.4261C62.6287 69.2484 66.9384 65.0488 72.1173 65.0488C74.6043 65.0488 76.9894 66.0368 78.748 67.7954C80.5066 69.5539 81.4945 71.9391 81.4945 74.4261Z" fill="#E5E5E5"/>
<path d="M75.3851 87.971H69.1335L68.3759 84.9399H76.143L75.3851 87.971Z" fill="#CBCBCB"/>
<path d="M75.1721 93.1545H69.3468V96.1902H75.1721V93.1545Z" fill="white"/>
<path d="M75.2194 96.2376H69.2994V93.1072H75.2194V96.2376ZM69.3942 96.1429H75.1247V93.2019H69.3942V96.1429Z" fill="#CBCBCB"/>
<path d="M73.4534 88.3284H71.0652L70.7911 87.8977H73.7275L73.4534 88.3284Z" fill="#CBCBCB"/>
<path d="M69.2758 87.9709H69.181V92.6122H69.2758V87.9709Z" fill="#CBCBCB"/>
<path d="M75.3378 87.9709H75.243V92.6122H75.3378V87.9709Z" fill="#CBCBCB"/>
<path d="M73.2088 84.8885L73.151 84.8134C75.8874 82.7033 79.1492 79.0882 79.1492 73.8495C79.1514 72.0147 78.6118 70.2201 77.5981 68.6907C76.5844 67.1614 75.1417 65.9654 73.451 65.2528L73.4879 65.1655C75.1958 65.8854 76.6531 67.0935 77.6771 68.6384C78.7011 70.1832 79.2462 71.9961 79.244 73.8495C79.244 79.1267 75.962 82.7653 73.2088 84.8885Z" fill="#CBCBCB"/>
<path d="M70.1777 84.8886L70.1199 84.8135C72.8563 82.7034 76.1182 79.0883 76.1182 73.8495C76.1189 72.0271 75.5858 70.2443 74.5846 68.7215C73.5835 67.1986 72.1582 66.0024 70.4847 65.2806L70.5223 65.1936C72.2127 65.9228 73.6525 67.1311 74.6638 68.6694C75.6751 70.2077 76.2136 72.0086 76.2129 73.8495C76.2129 79.1268 72.9309 82.7654 70.1777 84.8886Z" fill="#CBCBCB"/>
<path d="M74.0569 84.8886C71.3037 82.7654 68.0217 79.1268 68.0217 73.8496C68.021 72.0086 68.5595 70.2077 69.5708 68.6694C70.5822 67.1311 72.022 65.9228 73.7124 65.1936L73.7499 65.2806C72.0765 66.0024 70.6512 67.1986 69.65 68.7215C68.6488 70.2443 68.1157 72.0271 68.1164 73.8496C68.1164 79.0883 71.3783 82.7034 74.1147 84.8135L74.0569 84.8886Z" fill="#CBCBCB"/>
<path d="M71.0258 84.8885C68.2726 82.7654 64.9906 79.1268 64.9906 73.8495C64.9875 71.9888 65.5364 70.169 66.5679 68.6203C67.5994 67.0716 69.067 65.8637 70.7852 65.1494L70.8217 65.2368C69.1208 65.944 67.6679 67.1397 66.6468 68.6728C65.6257 70.2059 65.0823 72.0075 65.0853 73.8495C65.0853 79.0883 68.3472 82.7033 71.0836 84.8135L71.0258 84.8885Z" fill="#CBCBCB"/>
<path d="M72.1647 65.0488H72.0699V84.94H72.1647V65.0488Z" fill="#CBCBCB"/>
<path d="M71.0501 92.4662L69.3132 94.2031L69.3802 94.2701L71.1171 92.5332L71.0501 92.4662Z" fill="#CBCBCB"/>
<path d="M71.8945 92.4373L69.3126 95.1528L69.3813 95.2181L71.9632 92.5026L71.8945 92.4373Z" fill="#CBCBCB"/>
<path d="M75.7167 92.4702H68.6127V93.3227H75.7167V92.4702Z" fill="white"/>
<path d="M75.764 93.3701H68.5653V92.4229H75.764V93.3701ZM68.66 93.2753H75.6693V92.5176H68.66V93.2753Z" fill="#CBCBCB"/>
<path d="M160.002 86.4693C160.062 86.4693 160.119 86.4466 160.163 86.406C160.206 86.3654 160.233 86.3099 160.237 86.2505C160.391 84.1601 161.328 82.2049 162.862 80.7761C164.395 79.3473 166.412 78.5504 168.508 78.5448C168.759 78.5448 169.022 78.5575 169.291 78.5827C169.336 78.5869 169.382 78.5781 169.422 78.5573C169.462 78.5365 169.495 78.5046 169.517 78.4654C170.48 76.7801 171.918 75.4157 173.651 74.5424C175.385 73.6691 177.337 73.3257 179.264 73.5549C181.192 73.7841 183.009 74.5759 184.489 75.8314C185.969 77.0868 187.047 78.7504 187.587 80.6145C187.602 80.6645 187.632 80.7082 187.674 80.739C187.716 80.7697 187.767 80.7856 187.819 80.7843L187.881 80.7824C187.914 80.7813 187.947 80.7801 187.979 80.7801C189.569 80.7851 191.109 81.3335 192.345 82.3344C193.58 83.3352 194.436 84.7283 194.771 86.2826C194.782 86.3354 194.811 86.3828 194.853 86.4168C194.894 86.4508 194.947 86.4693 195.001 86.4693H210.765C210.796 86.4694 210.826 86.4634 210.855 86.4516C210.884 86.4398 210.91 86.4225 210.932 86.4007C210.954 86.3788 210.971 86.3528 210.983 86.3242C210.995 86.2956 211.001 86.265 211.001 86.234C211.001 86.2031 210.995 86.1724 210.983 86.1438C210.971 86.1152 210.954 86.0892 210.932 86.0674C210.91 86.0455 210.884 86.0282 210.855 86.0164C210.826 86.0046 210.796 85.9986 210.765 85.9987H195.189C194.797 84.3821 193.875 82.9434 192.569 81.9122C191.264 80.881 189.651 80.3168 187.987 80.3095C187.395 78.3939 186.259 76.6915 184.718 75.4092C183.177 74.1268 181.296 73.3197 179.305 73.0858C177.313 72.8519 175.297 73.2014 173.501 74.0917C171.704 74.9821 170.205 76.375 169.185 78.1013C168.953 78.0832 168.726 78.0742 168.508 78.0742C166.293 78.0802 164.162 78.9224 162.541 80.4323C160.921 81.9422 159.93 84.0085 159.767 86.2175C159.765 86.2484 159.769 86.2793 159.779 86.3086C159.789 86.3379 159.804 86.365 159.824 86.3884C159.845 86.4117 159.869 86.4308 159.897 86.4446C159.925 86.4584 159.955 86.4666 159.986 86.4688C159.991 86.4691 159.997 86.4693 160.002 86.4693Z" fill="#CBCBCB"/>
<path d="M162.802 89.4865H201.392C201.454 89.4865 201.514 89.4617 201.558 89.4176C201.602 89.3734 201.627 89.3136 201.627 89.2512C201.627 89.1888 201.602 89.1289 201.558 89.0848C201.514 89.0407 201.454 89.0159 201.392 89.0159H162.802C162.74 89.0159 162.68 89.0407 162.636 89.0848C162.591 89.1289 162.567 89.1888 162.567 89.2512C162.567 89.3136 162.591 89.3734 162.636 89.4176C162.68 89.4617 162.74 89.4865 162.802 89.4865Z" fill="#CBCBCB"/>
<path d="M191.979 92.8983H204.921C204.983 92.8982 205.043 92.8733 205.087 92.8292C205.131 92.7851 205.156 92.7253 205.156 92.663C205.156 92.6008 205.131 92.541 205.087 92.4969C205.043 92.4528 204.983 92.4279 204.921 92.4277H191.979C191.949 92.4277 191.918 92.4338 191.889 92.4456C191.861 92.4575 191.835 92.4748 191.813 92.4967C191.791 92.5185 191.774 92.5444 191.762 92.573C191.75 92.6015 191.744 92.6321 191.744 92.663C191.744 92.6939 191.75 92.7245 191.762 92.7531C191.774 92.7816 191.791 92.8076 191.813 92.8294C191.835 92.8513 191.861 92.8686 191.889 92.8804C191.918 92.8922 191.949 92.8983 191.979 92.8983Z" fill="#CBCBCB"/>
<path d="M131.843 149.674H131.068L130.7 146.687H131.843V149.674Z" fill="#9F616A"/>
<path d="M132.04 150.425H129.543V150.393C129.543 150.135 129.646 149.888 129.828 149.706C130.01 149.524 130.257 149.421 130.515 149.421H132.04V150.425Z" fill="#2F2E41"/>
<path d="M141.831 148.206L141.167 148.605L139.312 146.234L140.292 145.645L141.831 148.206Z" fill="#9F616A"/>
<path d="M140.246 150.034L140.23 150.007C140.097 149.786 140.058 149.522 140.12 149.271C140.183 149.021 140.342 148.806 140.563 148.673L141.87 147.888L142.387 148.748L140.246 150.034Z" fill="#2F2E41"/>
<path d="M132.044 149.057L132.031 149.057C131.654 149.056 131.278 149.035 130.903 148.992C130.761 148.978 130.606 148.963 130.419 148.948L130.413 148.947C130.286 148.909 130.282 147.715 130.336 143.63C130.364 141.537 130.395 139.165 130.358 137.655L130.357 137.64L130.368 137.63C131.042 137.04 131.846 136.617 132.714 136.397C133.583 136.176 134.491 136.164 135.365 136.362L135.378 136.365L135.385 136.377C136.147 137.665 137.296 139.52 138.408 141.314C140.959 145.433 141.689 146.644 141.609 146.736L141.599 146.743C141.425 146.83 141.294 146.897 141.183 146.954C140.743 147.182 140.291 147.386 139.828 147.565L139.808 147.574L139.793 147.558C137.204 144.721 135.049 141.552 133.717 138.622C133.561 139.622 133.372 140.928 133.172 142.308C132.598 146.276 132.21 148.889 132.054 149.048L132.044 149.057Z" fill="#2F2E41"/>
<path d="M132.742 137.96C134.286 137.953 135.819 138.21 137.277 138.719C137.327 136.273 136.507 133.888 134.963 131.99L134.951 131.976L134.957 131.959C135.364 130.784 135.784 129.569 136.16 128.361L136.154 128.34C135.891 127.404 135.325 126.458 134.425 125.447C134.328 125.346 134.195 125.286 134.055 125.279C133.915 125.272 133.777 125.318 133.67 125.409C132.881 126.13 132.267 127.021 131.874 128.014C131.481 129.007 131.319 130.076 131.4 131.142L131.401 131.148L131.399 131.154C130.695 133.54 130.439 134.766 130.213 135.848C130.049 136.637 129.906 137.32 129.62 138.296C130.646 138.073 131.692 137.96 132.742 137.96Z" fill="#CBCBCB"/>
<path opacity="0.1" d="M135.015 130.415L132.723 135.405L131.413 134.079L135.015 130.415Z" fill="black"/>
<path d="M134.035 124.962C134.935 124.962 135.665 124.232 135.665 123.331C135.665 122.43 134.935 121.7 134.035 121.7C133.134 121.7 132.404 122.43 132.404 123.331C132.404 124.232 133.134 124.962 134.035 124.962Z" fill="#9F616A"/>
<path d="M132.058 122.41H134.647V121.281C134.079 121.055 133.523 120.863 133.186 121.281C132.887 121.281 132.6 121.4 132.388 121.612C132.177 121.823 132.058 122.11 132.058 122.41Z" fill="#2F2E41"/>
<path d="M134.79 121.082C136.338 121.082 136.771 123.022 136.771 124.117C136.771 124.727 136.495 124.945 136.061 125.019L135.908 124.202L135.549 125.055C135.428 125.055 135.3 125.053 135.167 125.05L135.045 124.8L134.774 125.046C133.687 125.047 132.809 125.206 132.809 124.117C132.809 123.022 133.189 121.082 134.79 121.082Z" fill="#2F2E41"/>
<path d="M181.544 45.75C181.544 88.7274 136.487 109.292 136.487 109.292C136.487 109.292 90.9681 88.7274 90.0439 45.75C89.5006 20.4888 110.527 0 135.794 0C161.061 0 181.544 20.483 181.544 45.75Z" fill="#9292FD"/>
<path d="M137.454 149.336H136.504L136.052 145.673H137.454V149.336Z" fill="#FFB7B7"/>
<path d="M135.825 149.065H137.657V150.218H134.672C134.672 150.066 134.702 149.917 134.76 149.777C134.818 149.637 134.903 149.51 135.01 149.402C135.117 149.295 135.244 149.21 135.384 149.152C135.524 149.095 135.674 149.065 135.825 149.065Z" fill="#2F2E41"/>
<path d="M141.017 149.336H140.067L139.615 145.673H141.017L141.017 149.336Z" fill="#FFB7B7"/>
<path d="M139.389 149.065H141.22V150.218H138.236C138.236 149.912 138.357 149.619 138.573 149.402C138.79 149.186 139.083 149.065 139.389 149.065Z" fill="#2F2E41"/>
<path d="M140.901 138.426C140.799 138.36 140.712 138.273 140.647 138.17C140.582 138.067 140.541 137.951 140.526 137.83C140.51 137.709 140.522 137.587 140.559 137.471C140.596 137.355 140.658 137.249 140.741 137.16L140.116 128.285L141.917 128.46L141.967 137.151C142.107 137.3 142.188 137.495 142.194 137.7C142.201 137.905 142.132 138.105 142 138.262C141.869 138.419 141.684 138.522 141.482 138.553C141.279 138.583 141.072 138.538 140.901 138.426Z" fill="#FFB7B7"/>
<path d="M137.409 147.491L136.363 147.441C136.274 147.437 136.19 147.398 136.128 147.334C136.066 147.27 136.032 147.184 136.031 147.095L135.958 136.517C135.958 136.466 135.968 136.417 135.989 136.371C136.01 136.325 136.04 136.284 136.078 136.251C136.116 136.218 136.16 136.194 136.208 136.18C136.256 136.166 136.307 136.162 136.357 136.169L140.54 136.776C140.622 136.788 140.698 136.829 140.753 136.892C140.808 136.955 140.838 137.035 140.838 137.119L141.376 146.921C141.376 146.967 141.368 147.012 141.35 147.055C141.333 147.098 141.307 147.136 141.275 147.169C141.242 147.202 141.204 147.228 141.161 147.245C141.119 147.263 141.073 147.272 141.027 147.272H139.9C139.817 147.272 139.737 147.243 139.673 147.189C139.61 147.135 139.568 147.06 139.556 146.978C139.556 146.978 138.705 139.625 138.588 139.629C138.47 139.632 137.771 147.184 137.771 147.184C137.761 147.269 137.72 147.346 137.656 147.403C137.593 147.46 137.51 147.491 137.425 147.491C137.42 147.491 137.414 147.491 137.409 147.491Z" fill="#2F2E41"/>
<path d="M140.524 131.268C140.481 131.237 140.447 131.198 140.422 131.152C140.397 131.107 140.382 131.056 140.38 131.004L140.248 128.612C140.235 128.375 140.31 128.142 140.459 127.957C140.607 127.772 140.819 127.649 141.054 127.611C141.288 127.573 141.528 127.624 141.727 127.752C141.927 127.881 142.072 128.079 142.134 128.308L142.714 130.446C142.738 130.536 142.725 130.631 142.679 130.711C142.633 130.791 142.557 130.85 142.468 130.874L140.819 131.321C140.769 131.335 140.716 131.337 140.665 131.328C140.614 131.319 140.566 131.298 140.524 131.268Z" fill="#3F3D56"/>
<path d="M138.983 125.583C140.034 125.583 140.886 124.731 140.886 123.68C140.886 122.629 140.034 121.778 138.983 121.778C137.932 121.778 137.08 122.629 137.08 123.68C137.08 124.731 137.932 125.583 138.983 125.583Z" fill="#FFB7B7"/>
<path d="M140.329 125.185C140.25 125.271 140.147 125.333 140.034 125.362C139.921 125.392 139.802 125.388 139.69 125.353C139.579 125.317 139.48 125.25 139.406 125.16C139.331 125.07 139.284 124.96 139.269 124.844C139.265 124.804 139.266 124.764 139.27 124.724C139.294 124.495 139.426 124.287 139.394 124.045C139.387 123.985 139.365 123.928 139.329 123.879C139.046 123.5 138.382 124.048 138.115 123.706C137.952 123.495 138.144 123.164 138.018 122.929C137.853 122.619 137.362 122.772 137.054 122.602C136.711 122.413 136.732 121.888 136.957 121.568C137.104 121.379 137.291 121.225 137.504 121.116C137.717 121.008 137.952 120.947 138.191 120.94C138.669 120.929 139.145 121.021 139.584 121.212C140.103 121.381 140.561 121.698 140.901 122.125C141.077 122.405 141.189 122.72 141.228 123.049C141.267 123.377 141.232 123.71 141.127 124.023C141.012 124.407 140.619 124.877 140.329 125.185Z" fill="#2F2E41"/>
<path d="M140.882 126.854C140.849 126.83 140.815 126.807 140.781 126.784C140.598 126.662 140.4 126.565 140.193 126.495V125.995H138.721V126.459C138.233 126.594 137.795 126.869 137.462 127.25C137.13 127.632 136.916 128.102 136.849 128.604L135.847 136.045C135.84 136.091 135.843 136.139 135.856 136.184C135.868 136.229 135.89 136.271 135.919 136.308C135.947 136.345 135.983 136.375 136.024 136.397C136.064 136.42 136.109 136.433 136.155 136.438C136.858 136.529 137.534 136.76 138.145 137.119C138.588 137.365 139.087 137.492 139.594 137.489C139.996 137.487 140.395 137.416 140.773 137.279C140.837 137.255 140.893 137.213 140.933 137.158C140.973 137.103 140.996 137.037 140.999 136.969C141.035 136.168 141.246 132.046 141.861 129.532C141.98 129.039 141.951 128.521 141.777 128.045C141.603 127.568 141.291 127.154 140.882 126.854Z" fill="#3F3D56"/>
<path d="M151.737 111.834H121.237L117.54 97.0457H155.434L151.737 111.834Z" fill="#3F3D56"/>
<path d="M150.697 137.123H122.277V151.934H150.697V137.123Z" fill="white"/>
<path d="M150.928 152.165H122.046V136.892H150.928V152.165ZM122.508 151.703H150.466V137.354H122.508V151.703Z" fill="#3F3D56"/>
<path d="M142.313 113.577H130.661L129.324 111.476H143.65L142.313 113.577Z" fill="#3F3D56"/>
<path d="M121.93 111.833H121.468V134.477H121.93V111.833Z" fill="#3F3D56"/>
<path d="M151.506 111.833H151.044V134.477H151.506V111.833Z" fill="#3F3D56"/>
<path d="M141.119 96.7952L140.837 96.4292C154.187 86.134 170.101 68.4967 170.101 42.9378C170.112 33.9861 167.48 25.2306 162.534 17.7692C157.588 10.3078 150.549 4.47276 142.3 0.995878L142.481 0.570312C150.813 4.08248 157.923 9.97672 162.919 17.5138C167.915 25.0509 170.574 33.8953 170.564 42.9378C170.564 68.6844 154.552 86.4366 141.119 96.7952Z" fill="#3F3D56"/>
<path d="M126.331 96.7951L126.049 96.4291C139.399 86.134 155.314 68.4966 155.314 42.9377C155.317 34.0462 152.716 25.3484 147.832 17.9187C142.947 10.4889 135.993 4.65275 127.829 1.131L128.012 0.706787C136.259 4.26427 143.284 10.1597 148.218 17.6648C153.152 25.1699 155.779 33.956 155.776 42.9377C155.776 68.6844 139.764 86.4367 126.331 96.7951Z" fill="#3F3D56"/>
<path d="M145.256 96.7951C131.824 86.4367 115.812 68.6845 115.812 42.9378C115.808 33.956 118.436 25.1699 123.37 17.6647C128.304 10.1596 135.329 4.2642 143.576 0.706787L143.759 1.131C135.595 4.65269 128.641 10.4889 123.756 17.9186C118.872 25.3484 116.271 34.0462 116.274 42.9378C116.274 68.4966 132.188 86.134 145.539 96.4292L145.256 96.7951Z" fill="#3F3D56"/>
<path d="M130.469 96.7952C117.036 86.4367 101.024 68.6846 101.024 42.9378C101.009 33.8597 103.687 24.9811 108.719 17.4254C113.752 9.86967 120.912 3.97648 129.295 0.491455L129.473 0.917923C121.175 4.36791 114.086 10.2019 109.104 17.6817C104.122 25.1614 101.471 33.9509 101.486 42.9378C101.486 68.4969 117.4 86.1341 130.751 96.4292L130.469 96.7952Z" fill="#3F3D56"/>
<path d="M136.025 0H135.563V97.0456H136.025V0Z" fill="#3F3D56"/>
<path d="M130.587 133.765L122.113 142.239L122.44 142.566L130.914 134.092L130.587 133.765Z" fill="#3F3D56"/>
<path d="M134.707 133.624L122.11 146.873L122.445 147.191L135.042 133.943L134.707 133.624Z" fill="#3F3D56"/>
<path d="M153.354 133.784H118.695V137.943H153.354V133.784Z" fill="white"/>
<path d="M153.586 138.174H118.464V133.553H153.586V138.174ZM118.926 137.712H153.123V134.015H118.926V137.712Z" fill="#3F3D56"/>
<path d="M129.905 135.719C129.998 135.712 130.088 135.685 130.169 135.64C130.25 135.595 130.321 135.533 130.375 135.458C130.43 135.383 130.467 135.296 130.485 135.205C130.502 135.114 130.5 135.02 130.477 134.93L132.366 133.693L131.289 133.228L129.66 134.474C129.512 134.522 129.386 134.623 129.306 134.758C129.227 134.892 129.2 135.051 129.23 135.205C129.26 135.358 129.345 135.495 129.47 135.59C129.594 135.685 129.749 135.73 129.905 135.719Z" fill="#9F616A"/>
<path d="M131.722 134.827L131.698 134.811C131.249 134.48 130.75 134.138 130.268 133.807L130.239 133.787L130.261 133.76C131.291 132.555 132.322 131.297 133.319 130.079L133.318 130.075L133.327 130.07L133.331 130.065L133.333 130.067L133.339 130.064L133.312 130.066L133.005 127.656C132.852 127.405 132.775 127.116 132.781 126.823C132.786 126.53 132.876 126.244 133.038 126C133.224 125.736 133.501 125.551 133.816 125.479C134.131 125.407 134.461 125.454 134.744 125.61C134.883 125.704 135 125.828 135.085 125.973C135.17 126.117 135.221 126.279 135.235 126.447C135.255 126.596 135.241 126.747 135.195 126.89C135.149 127.033 135.071 127.164 134.968 127.273C135.074 128.443 135.121 129.618 135.108 130.792L135.108 130.803L135.101 130.812C134.038 132.163 132.871 133.506 131.741 134.805L131.722 134.827Z" fill="#CBCBCB"/>
<path d="M132.088 127.418C132.098 127.46 132.104 127.503 132.107 127.545L135.434 129.465L136.243 129L137.106 130.128L135.375 131.362L131.579 128.367C131.424 128.424 131.255 128.433 131.095 128.392C130.935 128.351 130.792 128.262 130.683 128.138C130.575 128.013 130.507 127.859 130.489 127.695C130.47 127.531 130.502 127.365 130.58 127.219C130.658 127.074 130.779 126.956 130.926 126.88C131.073 126.805 131.239 126.776 131.403 126.798C131.567 126.82 131.72 126.891 131.842 127.001C131.965 127.112 132.05 127.258 132.088 127.418Z" fill="#FFB7B7"/>
<path d="M135.553 129.302C135.548 129.25 135.554 129.198 135.571 129.149C135.589 129.1 135.617 129.056 135.653 129.019L137.347 127.325C137.515 127.157 137.739 127.057 137.976 127.045C138.213 127.032 138.446 127.108 138.631 127.257C138.815 127.407 138.938 127.619 138.975 127.853C139.012 128.088 138.961 128.328 138.832 128.527L137.626 130.385C137.575 130.463 137.496 130.517 137.406 130.536C137.316 130.556 137.221 130.538 137.144 130.488L135.71 129.558C135.667 129.53 135.63 129.492 135.603 129.448C135.575 129.403 135.559 129.354 135.553 129.302Z" fill="#3F3D56"/>
<path d="M112.51 112.81C112.45 112.81 112.393 112.788 112.349 112.747C112.306 112.707 112.279 112.651 112.275 112.592C112.121 110.501 111.184 108.546 109.65 107.117C108.117 105.688 106.1 104.891 104.004 104.886C103.753 104.886 103.49 104.899 103.221 104.924C103.176 104.928 103.131 104.919 103.09 104.898C103.05 104.878 103.017 104.846 102.995 104.806C102.032 103.121 100.594 101.757 98.8606 100.883C97.1272 100.01 95.1751 99.6667 93.2477 99.896C91.3204 100.125 89.5032 100.917 88.0231 102.172C86.5429 103.428 85.4652 105.091 84.9245 106.956C84.9102 107.006 84.8797 107.049 84.8379 107.08C84.796 107.111 84.745 107.127 84.6931 107.125L84.6306 107.123C84.598 107.122 84.5655 107.121 84.5327 107.121C82.9429 107.126 81.4025 107.675 80.1673 108.675C78.932 109.676 78.0761 111.069 77.7415 112.624C77.7304 112.676 77.7014 112.724 77.6595 112.758C77.6176 112.792 77.5652 112.81 77.5112 112.81H61.7473C61.7163 112.81 61.6856 112.804 61.657 112.793C61.6284 112.781 61.6023 112.764 61.5804 112.742C61.5585 112.72 61.5411 112.694 61.5292 112.665C61.5173 112.637 61.5112 112.606 61.5112 112.575C61.5112 112.544 61.5173 112.513 61.5292 112.485C61.5411 112.456 61.5585 112.43 61.5804 112.408C61.6023 112.387 61.6284 112.369 61.657 112.357C61.6856 112.346 61.7163 112.34 61.7473 112.34H77.3229C77.715 110.723 78.6373 109.284 79.9427 108.253C81.248 107.222 82.8611 106.658 84.5246 106.651C85.1168 104.735 86.2525 103.033 87.7939 101.75C89.3352 100.468 91.2158 99.6607 93.2071 99.4269C95.1985 99.193 97.2149 99.5425 99.0114 100.433C100.808 101.323 102.307 102.716 103.327 104.442C103.559 104.424 103.786 104.415 104.004 104.415C106.219 104.421 108.35 105.263 109.971 106.773C111.591 108.283 112.582 110.35 112.745 112.559C112.747 112.589 112.743 112.62 112.733 112.65C112.723 112.679 112.708 112.706 112.688 112.729C112.667 112.753 112.643 112.772 112.615 112.786C112.587 112.799 112.557 112.808 112.526 112.81C112.521 112.81 112.515 112.81 112.51 112.81Z" fill="#CBCBCB"/>
<path d="M109.71 115.827H71.1204C71.0895 115.827 71.0588 115.821 71.0302 115.81C71.0015 115.798 70.9755 115.78 70.9536 115.759C70.9317 115.737 70.9143 115.711 70.9024 115.682C70.8905 115.654 70.8844 115.623 70.8844 115.592C70.8844 115.561 70.8905 115.53 70.9024 115.502C70.9143 115.473 70.9317 115.447 70.9536 115.425C70.9755 115.403 71.0015 115.386 71.0302 115.374C71.0588 115.363 71.0895 115.357 71.1204 115.357H109.71C109.772 115.357 109.832 115.381 109.876 115.426C109.921 115.47 109.945 115.53 109.945 115.592C109.945 115.654 109.921 115.714 109.876 115.758C109.832 115.803 109.772 115.827 109.71 115.827Z" fill="#CBCBCB"/>
<path d="M80.5325 119.239H67.5909C67.5599 119.239 67.5293 119.233 67.5006 119.221C67.472 119.21 67.446 119.192 67.424 119.171C67.4021 119.149 67.3847 119.123 67.3728 119.094C67.361 119.065 67.3549 119.035 67.3549 119.004C67.3549 118.973 67.361 118.942 67.3728 118.914C67.3847 118.885 67.4021 118.859 67.424 118.837C67.446 118.815 67.472 118.798 67.5006 118.786C67.5293 118.774 67.5599 118.768 67.5909 118.769H80.5325C80.5635 118.768 80.5942 118.774 80.6228 118.786C80.6514 118.798 80.6775 118.815 80.6994 118.837C80.7213 118.859 80.7387 118.885 80.7506 118.914C80.7625 118.942 80.7686 118.973 80.7686 119.004C80.7686 119.035 80.7625 119.065 80.7506 119.094C80.7387 119.123 80.7213 119.149 80.6994 119.171C80.6775 119.192 80.6514 119.21 80.6228 119.221C80.5942 119.233 80.5635 119.239 80.5325 119.239Z" fill="#CBCBCB"/>
</g>
<path d="M104.082 179.848C109.774 177.625 113.193 168.463 118.658 174.155C124.123 179.848 126.855 182.125 131.865 181.897C136.874 181.67 143.933 175.749 143.933 175.749" stroke="#F1F1F1"/>
<path d="M104.082 179.848C109.774 177.625 113.193 168.463 118.658 174.155C124.123 179.848 126.855 182.125 131.865 181.897C136.874 181.67 143.933 175.749 143.933 175.749" stroke="#F1F1F1"/>
<path d="M104.082 183.036C109.774 180.813 113.193 171.651 118.658 177.344C124.123 183.036 126.855 185.313 131.865 185.086C136.874 184.858 143.933 178.938 143.933 178.938" stroke="#9292FD"/>
<path d="M104.082 183.036C109.774 180.813 113.193 171.651 118.658 177.344C124.123 183.036 126.855 185.313 131.865 185.086C136.874 184.858 143.933 178.938 143.933 178.938" stroke="#9292FD"/>
<path d="M104.082 186.224C109.774 184.001 113.193 174.839 118.658 180.532C124.123 186.224 126.855 188.501 131.865 188.274C136.874 188.046 143.933 182.126 143.933 182.126" stroke="#F1F1F1"/>
<path d="M104.082 186.224C109.774 184.001 113.193 174.839 118.658 180.532C124.123 186.224 126.855 188.501 131.865 188.274C136.874 188.046 143.933 182.126 143.933 182.126" stroke="#F1F1F1"/>
<defs>
<clipPath id="clip0_107_79">
<rect width="200" height="152.165" fill="white" transform="translate(11)"/>
</clipPath>
</defs>
</svg>
